HIERARCHY
ROOT Hips
{
	OFFSET -14.64140 90.27770 -84.91600
	CHANNELS 6 Xposition Yposition Zposition Zrotation Xrotation Yrotation
	JOINT Spine
	{
		OFFSET 0.00000 13.20850 -1.60436
		CHANNELS 3 Zrotation Xrotation Yrotation
		JOINT Spine1
		{
			OFFSET 0.00000 8.61716 0.00000
			CHANNELS 3 Zrotation Xrotation Yrotation
			JOINT Spine2
			{
				OFFSET 0.00000 8.61717 0.00000
				CHANNELS 3 Zrotation Xrotation Yrotation
				JOINT Spine3
				{
					OFFSET 0.00000 8.61717 0.00000
					CHANNELS 3 Zrotation Xrotation Yrotation
					JOINT Neck
					{
						OFFSET 0.00000 11.07920 1.10792
						CHANNELS 3 Zrotation Xrotation Yrotation
						JOINT Neck1
						{
							OFFSET 0.00000 7.08032 0.00000
							CHANNELS 3 Zrotation Xrotation Yrotation
							JOINT Head
							{
								OFFSET 0.00000 7.08031 0.00000
								CHANNELS 3 Zrotation Xrotation Yrotation
								End site
								{
									OFFSET 0.00000 0.00000 0.00000
								}
							}
						}
					}
					JOINT RightShoulder
					{
						OFFSET -0.01000 7.91373 5.19711
						CHANNELS 3 Zrotation Xrotation Yrotation
						JOINT RightArm
						{
							OFFSET -18.41580 0.00000 0.00000
							CHANNELS 3 Zrotation Xrotation Yrotation
							JOINT RightForeArm
							{
								OFFSET -29.11090 0.00000 0.00000
								CHANNELS 3 Zrotation Xrotation Yrotation
								JOINT RightHand
								{
									OFFSET -24.65040 0.00000 0.00000
									CHANNELS 3 Zrotation Xrotation Yrotation
									JOINT RightHandThumb1
									{
										OFFSET -5.35114 -0.85590 3.97906
										CHANNELS 3 Zrotation Xrotation Yrotation
										JOINT RightHandThumb2
										{
											OFFSET -4.52789 0.00000 0.00000
											CHANNELS 3 Zrotation Xrotation Yrotation
											JOINT RightHandThumb3
											{
												OFFSET -2.46976 0.00000 0.00000
												CHANNELS 3 Zrotation Xrotation Yrotation
												End site
												{
													OFFSET 0.00000 0.00000 0.00000
												}
											}
										}
									}
									JOINT RightHandIndex1
									{
										OFFSET -14.26970 0.00000 2.88139
										CHANNELS 3 Zrotation Xrotation Yrotation
										JOINT RightHandIndex2
										{
											OFFSET -5.48836 0.00000 0.00000
											CHANNELS 3 Zrotation Xrotation Yrotation
											JOINT RightHandIndex3
											{
												OFFSET -3.01859 0.00000 0.00000
												CHANNELS 3 Zrotation Xrotation Yrotation
												End site
												{
													OFFSET 0.00000 0.00000 0.00000
												}
											}
										}
									}
									JOINT RightHandMiddle1
									{
										OFFSET -14.26970 0.00000 -0.09147
										CHANNELS 3 Zrotation Xrotation Yrotation
										JOINT RightHandMiddle2
										{
											OFFSET -6.17441 0.00000 0.00000
											CHANNELS 3 Zrotation Xrotation Yrotation
											JOINT RightHandMiddle3
											{
												OFFSET -3.56743 0.00000 0.00000
												CHANNELS 3 Zrotation Xrotation Yrotation
												End site
												{
													OFFSET 0.00000 0.00000 0.00000
												}
											}
										}
									}
									JOINT RightHandRing1
									{
										OFFSET -12.69180 0.00000 -3.06433
										CHANNELS 3 Zrotation Xrotation Yrotation
										JOINT RightHandRing2
										{
											OFFSET -5.62556 0.00000 0.00000
											CHANNELS 3 Zrotation Xrotation Yrotation
											JOINT RightHandRing3
											{
												OFFSET -3.56744 0.00000 0.00000
												CHANNELS 3 Zrotation Xrotation Yrotation
												End site
												{
													OFFSET 0.00000 0.00000 0.00000
												}
											}
										}
									}
									JOINT RightHandPinky1
									{
										OFFSET -11.11390 0.00000 -6.03719
										CHANNELS 3 Zrotation Xrotation Yrotation
										JOINT RightHandPinky2
										{
											OFFSET -4.52789 0.00000 0.00000
											CHANNELS 3 Zrotation Xrotation Yrotation
											JOINT RightHandPinky3
											{
												OFFSET -2.46976 0.00000 0.00000
												CHANNELS 3 Zrotation Xrotation Yrotation
												End site
												{
													OFFSET 0.00000 0.00000 0.00000
												}
											}
										}
									}
								}
							}
						}
					}
					JOINT LeftShoulder
					{
						OFFSET 0.01000 7.91373 5.19711
						CHANNELS 3 Zrotation Xrotation Yrotation
						JOINT LeftArm
						{
							OFFSET 18.41580 0.00000 0.00000
							CHANNELS 3 Zrotation Xrotation Yrotation
							JOINT LeftForeArm
							{
								OFFSET 29.11090 0.00000 0.00000
								CHANNELS 3 Zrotation Xrotation Yrotation
								JOINT LeftHand
								{
									OFFSET 24.65040 0.00000 0.00000
									CHANNELS 3 Zrotation Xrotation Yrotation
									JOINT LeftHandThumb1
									{
										OFFSET 5.35114 -0.85590 3.97906
										CHANNELS 3 Zrotation Xrotation Yrotation
										JOINT LeftHandThumb2
										{
											OFFSET 4.52789 0.00000 0.00000
											CHANNELS 3 Zrotation Xrotation Yrotation
											JOINT LeftHandThumb3
											{
												OFFSET 2.46977 0.00000 0.00000
												CHANNELS 3 Zrotation Xrotation Yrotation
												End site
												{
													OFFSET 0.00000 0.00000 0.00000
												}
											}
										}
									}
									JOINT LeftHandIndex1
									{
										OFFSET 14.26970 0.00000 2.88139
										CHANNELS 3 Zrotation Xrotation Yrotation
										JOINT LeftHandIndex2
										{
											OFFSET 5.48836 0.00000 0.00000
											CHANNELS 3 Zrotation Xrotation Yrotation
											JOINT LeftHandIndex3
											{
												OFFSET 3.01859 0.00000 0.00000
												CHANNELS 3 Zrotation Xrotation Yrotation
												End site
												{
													OFFSET 0.00000 0.00000 0.00000
												}
											}
										}
									}
									JOINT LeftHandMiddle1
									{
										OFFSET 14.26970 0.00000 -0.09147
										CHANNELS 3 Zrotation Xrotation Yrotation
										JOINT LeftHandMiddle2
										{
											OFFSET 6.17440 0.00000 0.00000
											CHANNELS 3 Zrotation Xrotation Yrotation
											JOINT LeftHandMiddle3
											{
												OFFSET 3.56744 0.00000 0.00000
												CHANNELS 3 Zrotation Xrotation Yrotation
												End site
												{
													OFFSET 0.00000 0.00000 0.00000
												}
											}
										}
									}
									JOINT LeftHandRing1
									{
										OFFSET 12.69180 0.00000 -3.06433
										CHANNELS 3 Zrotation Xrotation Yrotation
										JOINT LeftHandRing2
										{
											OFFSET 5.62556 0.00000 0.00000
											CHANNELS 3 Zrotation Xrotation Yrotation
											JOINT LeftHandRing3
											{
												OFFSET 3.56744 0.00000 0.00000
												CHANNELS 3 Zrotation Xrotation Yrotation
												End site
												{
													OFFSET 0.00000 0.00000 0.00000
												}
											}
										}
									}
									JOINT LeftHandPinky1
									{
										OFFSET 11.11390 0.00000 -6.03719
										CHANNELS 3 Zrotation Xrotation Yrotation
										JOINT LeftHandPinky2
										{
											OFFSET 4.52789 0.00000 0.00000
											CHANNELS 3 Zrotation Xrotation Yrotation
											JOINT LeftHandPinky3
											{
												OFFSET 2.46976 0.00000 0.00000
												CHANNELS 3 Zrotation Xrotation Yrotation
												End site
												{
													OFFSET 0.00000 0.00000 0.00000
												}
											}
										}
									}
								}
							}
						}
					}
					JOINT pCube4
					{
						OFFSET 0.00000 10.91090 1.10792
						CHANNELS 3 Zrotation Xrotation Yrotation
						End site
						{
							OFFSET 0.00000 0.00000 0.00000
						}
					}
				}
			}
		}
	}
	JOINT RightUpLeg
	{
		OFFSET -9.98441 0.00000 0.00000
		CHANNELS 3 Zrotation Xrotation Yrotation
		JOINT RightLeg
		{
			OFFSET 0.00000 -42.11790 0.00000
			CHANNELS 3 Zrotation Xrotation Yrotation
			JOINT RightFoot
			{
				OFFSET 0.00000 -45.00020 -0.00001
				CHANNELS 3 Zrotation Xrotation Yrotation
				JOINT RightForeFoot
				{
					OFFSET 0.00000 -3.74820 0.00000
					CHANNELS 3 Zrotation Xrotation Yrotation
					JOINT RightToeBase
					{
						OFFSET 0.00000 0.06325 14.43120
						CHANNELS 3 Zrotation Xrotation Yrotation
						End site
						{
							OFFSET 0.00000 0.00000 0.00000
						}
					}
				}
			}
		}
	}
	JOINT LeftUpLeg
	{
		OFFSET 9.98441 0.00000 0.00000
		CHANNELS 3 Zrotation Xrotation Yrotation
		JOINT LeftLeg
		{
			OFFSET 0.00000 -42.11800 0.00000
			CHANNELS 3 Zrotation Xrotation Yrotation
			JOINT LeftFoot
			{
				OFFSET 0.00000 -45.00070 0.00000
				CHANNELS 3 Zrotation Xrotation Yrotation
				JOINT LeftForeFoot
				{
					OFFSET 0.00000 -3.74824 0.00000
					CHANNELS 3 Zrotation Xrotation Yrotation
					JOINT LeftToeBase
					{
						OFFSET 0.00000 0.06325 14.43110
						CHANNELS 3 Zrotation Xrotation Yrotation
						End site
						{
							OFFSET 0.00000 0.00000 0.00000
						}
					}
				}
			}
		}
	}
}
MOTION
Frames: 4
Frame Time: 0.050000
0.02654245388017426 -0.005668831041689271 0.011853100673719892 0.012826691430043015 -0.04311674755998979 -0.017751133322292608 -2.614385399487848 0.11763879059776208 -0.8216288352669865 -0.8054092969310037 3.5510263607226755 0.3244282235111049 -1.403904112203688 -2.448899755902926 -1.0353098900328555 0.1310763614723264 -0.18415897055474734 -0.8715797145019937 1.1203259701043222 14.883627353932587 -3.035390373330867 0.3901825949134032 0.7421461432236399 -8.204718624977787 1.3558742393131729 -14.216010919849392 -0.6632188056481612 -8.665425368305863 2.890105313810602 -15.357497398895797 72.54645738949301 -17.68972322065954 21.603710177781693 38.48024538137788 9.168388929442994 97.52724963625904 16.91464478986325 -0.5755745125421284 -2.5255997800515386 4.533164440596938 -0.10207736589197905 -1.5988246697088517 0.0010116631186906973 0.03349423887219216 -56.26604162603919 -0.043588591730597 0.013460004688351668 -56.21490443960121 -38.720835670247574 0.016137312389949747 0.03724336030491849 -0.001079022236888713 0.027806252491975627 -0.012488616057609576 0.01561733755753215 -0.0001259609280279208 -0.03079418918328012 -36.68987239873514 0.026515606428847777 0.022187201199986344 0.03540892210515281 0.021215497176799488 0.020425934297859244 0.016464913325057617 -0.03544022387582819 -0.009666550635766696 -19.759475774689022 -0.018683045602564913 -0.025770080755691867 0.030135556893463936 -0.006534024051527092 0.03689483236696302 -0.01921612458382789 -0.04421242974433709 0.043367004311869115 24.052560198064352 -0.01729375591008696 0.04119868638166225 28.901183388445716 0.016215533985717265 0.02512941157952511 28.86373333541676 0.048413293557026435 -0.008443478155717514 7.364620861436461 1.9226688926798283 12.751449113660414 -71.8942868958817 9.271700516202408 -13.40571787576956 -50.56364505215152 13.309535539540807 -105.11133670873457 -5.958327970219505 0.9754485697149228 -3.8753261197214397 -0.4262118298892135 0.07997359217268173 -8.087663838160024 0.04507203244068922 -0.027528143333329907 44.55943580134752 -0.007794623006556509 0.021275225909498045 44.51799131370126 12.485994954130929 0.014256198987276548 0.033275144158974077 0.008240631978744297 -0.04126409324542744 0.014987495234379799 0.03527854635120954 0.02567198597185971 -0.016980046475163647 11.085054843200645 -0.015371531352857565 0.03916584916370784 -0.014046063765220915 -0.043023784186426814 0.034785329810764466 -0.03020095135455794 -0.03432510142723365 0.043829641013861526 4.788294920145645 0.0322447746398211 0.03846106076880294 -0.04299037048951713 -0.028187832224776017 0.005516421769045652 0.00717492052324775 0.014211349392525129 0.0040757553335665705 -5.639509151638593 0.006904787909025996 0.01330271966534596 -6.718512934308633 0.011203717356007233 0.033733862981656496 -6.71077140043961 -0.02032760677387 -0.04579914542144341 0.004282930829558023 0.04210407323489826 0.021761078864165114 8.022360079605296 3.5321115948462456 -19.199144393706852 -0.03785964228919594 10.413944817332732 0.018160136635999205 -5.6074331804139 -15.657399630780187 3.1812341844338237 0.005252537552551178 0.023606906376017527 -0.03496904924640158 -0.0034765827335839347 4.659051818615798 0.00930970829106748 12.486085811929646 -8.227766348580198 6.886353876330582 -0.024539265705568317 46.3332023275332 0.004673204458008269 -4.294607415731326 -14.756641342108457 -3.790928208578132 0.0491411403567795 0.01833763499718418 -0.02915096383910246 -0.03397561769266347 -10.779527646595078 -0.00015932379711759725 
-0.02918249048549423 -0.010925358127245655 0.027963434319766164 0.027615606470200494 0.04376086783171204 -0.029388184107152267 -2.7360372755236932 0.042560711233154906 -0.8581392458787535 -0.8889701722891873 3.5483985983534274 0.36199964736885026 -1.4833033890372325 -2.5255369144424407 -0.8358875365079589 0.1174519872950967 -0.13143883596233963 -0.8077962065901854 1.2409013953594727 15.129150083237404 -2.9608425896956376 0.36774278982133235 0.7444049525479879 -8.253607744756412 1.446387084544701 -14.129964898648984 -0.7151335424198606 -9.395538404947471 3.0371075049647147 -15.37753008596372 71.30914786980266 -21.07715012493184 25.723943777380242 36.85735815765429 7.797635912999977 98.5354347509191 16.19948298442182 -0.5983548450614314 -1.6409475907324813 4.526432626977984 -0.13760704937174664 -1.5711864124944022 0.03487579606484532 -0.046349856833935166 -56.22533574917567 -0.04795259906041653 -0.03517716375220418 -56.24785526142312 -38.75486390532687 -0.029066897111466834 -0.02374839812495016 0.01558733794843547 0.042636912515535905 0.013492021686042658 0.042778856767557806 0.018481927812918526 -0.0452319929502398 -36.71233939164696 0.018040538883098683 0.005017996938945095 -0.0359056538085827 0.0010565242293604652 -0.020737380874152337 -0.049249718959078315 0.04240588051731012 0.017619180406452672 -19.736392763501023 0.04385737028759498 -0.031432832883967206 0.026379246211475665 -0.012813994082261436 -0.040396452684209334 -0.02954057243595987 0.022848676966736727 -0.01564807223319979 24.07073505170782 0.0052265598991025385 -0.031536388839743225 28.872804356686615 0.023651041347704 -0.02624317544511906 28.853797959937356 -0.043245385163605335 0.009923497295244171 7.540250088903348 1.9431521056928498 12.819242163476654 -70.91121380201598 8.857673268005032 -14.509983588579795 -44.69865797966066 11.181651829484943 -103.7922043582623 -3.5880293827370764 1.8096663003411604 -4.841391398335164 -0.5218219910900604 0.06784549219323034 -8.080713471076448 -0.03552520864218628 0.01733630897434313 44.52697571867202 -0.012499331092898051 0.03829409167340063 44.616932014561954 12.474270639955044 -0.03815338170789522 -0.007127329448490186 0.011906754236392376 0.029606189456534853 -0.02969654702919178 0.026481191154253104 -0.021936692989670527 0.02154657060065816 11.074598727002948 0.04400170486963702 -0.001743879866428141 0.03854695033686797 -0.014960407108503642 -0.0227046385651688 -0.01989716329410937 0.04040041648890545 -0.019554476720423587 4.820410282504537 0.022647003343854635 0.027301990426706665 0.01476773081961327 0.007682025428948141 0.004251915167603094 0.034261809400656755 -0.03570747071717023 -0.014937351816942484 -5.639378476194818 -0.03759175995837156 -0.029313235302835073 -6.739225878020966 0.04103754215071334 -0.006349027307647528 -6.735441939021798 -0.033558157900513516 -0.015293338123873132 -0.013789376763687336 -0.037334132002866116 0.018450078146099218 8.092215572494103 3.5185090798672984 -19.187243398044902 0.027982604917707578 10.398127044512814 0.0641089775856933 -5.637575772674538 -15.65384557216863 3.1919876347837115 -0.023881936631886293 0.004988033114989863 0.020444781692815238 0.04995437334363945 4.743718477470275 -0.01615469218970289 12.416147053741323 -8.2415306612446 6.868019654116343 -0.03728910325875359 46.41623735501258 -0.006593322498067574 -4.338475241223045 -14.784926512498522 -3.8177535495955595 -0.004649241867843448 0.0477105535552716 -0.02022694965083414 0.0402769966779896 -10.753702739199419 0.04846664982856741 
-0.03256584645324506 -0.03808592382460488 -0.01704079860270444 0.012915164803253687 -0.02084846887625398 0.01865424994754025 -2.8745495196372075 -0.011982501020683538 -0.784557913506484 -0.9011335742936987 3.588093058551526 0.36704716577117796 -1.5314344031885698 -2.5369505856929964 -0.7087427539926568 0.03127322675868151 -0.17923882483997405 -0.7625189676091828 1.2846844478561625 15.425403509614577 -2.9971880659019465 0.3959696612516543 0.83196777128775 -8.339076840134435 1.437543402638643 -14.025070264480838 -0.6716591612633196 -10.014935081470718 3.1898344301826533 -15.324255747118732 69.61732966116458 -23.88044568281503 29.82260731365301 35.24488036827403 6.557254026096217 99.13977932151472 15.719741502125041 -0.582737897497667 -0.9714922688618162 4.485608192638675 -0.1650533124038902 -1.5494447678445709 -0.007402856593285594 -0.023465408084119243 -56.24755151986084 -0.018583091534180283 -0.0033827210640930616 -56.214177110001934 -38.806762264442966 0.005467885357240712 0.017482399053992834 0.014844823074724435 0.027594702342350307 0.008813614964041793 -0.02802573367694598 0.008698546502018773 0.03009343043641793 -36.662548003434075 0.020090259396462244 -0.028698623163316513 0.041381731706923 -0.01147591067422362 -0.025327116377835517 -0.016876432144326985 -0.009423262267087838 0.02225864578689083 -19.758225917532965 0.02608642556119762 -0.04932643729733018 -0.012006254947464687 -0.031516204091012516 -0.000992783122462926 0.038052763468864687 -0.012245128104701287 0.031760076504574214 24.073738725396883 0.028251340613079132 0.02772624568328857 28.86940776923481 0.010515250323134434 -0.01893210206643575 28.889758372603133 0.04439222610221097 -0.03556254127905108 7.694451706878514 1.9409729425517774 12.699032148484932 -69.68945614072294 9.005007640948634 -15.526137663254392 -39.13241599205713 8.800537431516213 -102.47690796625585 -1.4006307956961068 2.4765569497556204 -5.762598131055825 -0.4892651995055677 0.06128288442561516 -8.144257367472422 -0.016523701324041504 0.01440578293144978 44.54954183704327 -0.00942130759895485 -0.043039089365497746 44.5244764068094 12.456234332357031 0.0005157537393873852 0.030968817399645753 0.02727683602832092 -0.04320621824173316 -0.02811133617452359 0.04291457224570894 0.020562508219849625 -0.02522563887864207 11.05698134514903 -0.00460873027591949 0.04858866324282909 -0.011832247645929673 0.008935982533082339 0.015224126428456967 -0.020254092638715124 0.011843452974205082 0.033062850196627934 4.78815944167739 0.0010383843750659573 -0.038004236828658874 0.03072454462589261 0.010080470939935592 0.013328787349564622 -0.023298150390374386 -0.023113201470219488 -0.045289087337272244 -5.590420943852284 0.025763284188778723 0.003792980777592261 -6.737875462904444 0.0071880893985982715 0.02619463208864852 -6.726675209494621 0.005288419977134711 -0.005743408034926013 -0.020524758211926737 0.034863557910887105 0.027245423143880648 8.081519757716316 3.449670831374055 -19.202980560541004 -0.02833969216325661 10.419034631570781 -0.017294612989473778 -5.572627475699556 -15.618151570310571 3.1722465084046494 -0.017174021595931857 -0.021253284638015766 0.03964791125209437 -0.017294510304328464 4.7248893279696 0.009631020342008566 12.477488513695352 -8.287990694463726 6.838955783595644 0.001971142371671782 46.376004714883415 -0.034455748496615535 -4.346042432104556 -14.794787485619949 -3.8582444904325746 0.043523109609056754 0.010950105959591687 -0.04072185633607942 0.00194534368256017 -10.790743398071367 0.012903898470166604 
-0.022198037152776875 0.047886795202849386 -0.023147313292883564 -0.038914962543243385 0.04627064453006742 -0.015507790038530709 -2.9823238658551654 -0.16229203302773182 -0.7120008389976824 -0.913975472370281 3.5539109328131624 0.41284183102390193 -1.5148839603630477 -2.5687016662266053 -0.6223164859604781 0.0032090935189570333 -0.2024940221143505 -0.789148004735735 1.3462276518187344 15.556960797888689 -2.906768002025439 0.4268243421365198 0.9595158179799019 -8.364487222131354 1.479031287674955 -13.945232338010165 -0.7120978985211818 -10.517341850774597 3.2484490229429452 -15.139179002987293 67.46132757511901 -25.07348908770939 34.06497353886893 32.099074803967405 5.076664943182717 99.98736374260096 14.995624305181279 -0.5815147097497233 -0.4732269018233425 4.532959629556202 -0.1632431831123784 -1.6082152373389575 0.03647487849703458 -0.020929604439900995 -56.279569856148235 -0.02640831139369288 0.014374021774869933 -56.234684300530354 -38.73877646172032 -0.011233787277588048 -0.02102942250005961 -0.0023859882054198343 1.6855363325784288e-05 -0.0382936997224543 0.012357669098377166 -0.024975287686799862 0.006872093543939576 -36.71696264153222 -0.005401105271727634 0.03795520484580499 -0.044414042153608335 -0.016833164493869585 -0.0033378599570638404 -0.00827794285335808 -0.007705977951735176 0.02874415592330318 -19.767870946385763 -0.02552971371245731 -0.04929548875018131 -0.04658133334720381 -0.03564152593241124 0.03340137345106063 0.020381541106499583 0.04989243929303264 -0.0021928357051337875 24.048772002528203 -0.02750534851965119 0.007310098304643228 28.858456569558616 -0.00843519247257255 -0.04410243378494659 28.901020192348224 -0.029787913959201388 0.01036214983359129 7.826635019099932 1.8888904964592903 12.697405128377104 -68.37504853170631 9.237879516213237 -16.93426713239116 -32.577166304877075 5.7272456690367415 -101.39682484524609 0.6512234056495407 2.8566698070839665 -6.308477528046717 -0.4247285668219853 0.11630213896444933 -8.114376754345011 -0.02501772917123171 0.02748510878676077 44.57409033767769 -0.04515687597111926 0.0413782699446836 44.60232463206918 12.458195696720777 -0.0036209597408860188 -0.0017052645075891519 0.009449190547434483 -0.012387625081019754 -0.007697152805434397 -0.02070325259463231 0.022302251343501216 0.026439725724985177 11.060601992913066 0.031502750031303796 -0.039687157479300385 0.002490745752468129 0.03547206296164153 0.0080409281227527 0.03364084620046403 -0.03463978078874209 -0.04781610709491127 4.7551964136295455 0.03496444603779078 0.004352634975683994 0.0068328586469464745 0.017154768625761804 -0.03154550606852103 0.0038213926379020266 -0.0030113349335589776 -0.020911083344256717 -5.595834979697462 0.02786564203637608 0.04367897015209968 -6.698492939928653 0.004058967679536542 0.01392812476670718 -6.717816440711817 -0.009146438339528815 -0.00956747121066043 -0.024136498944816828 -0.029750038278372987 -0.03208102468442082 8.051291835585312 3.4872950774085023 -19.200940871936545 -0.02128007578302875 10.43142496769518 0.0009045909532168269 -5.581857094601507 -15.655561847791347 3.1838107856102584 -0.043461647072495 -0.02267112307740333 0.014084295807268844 -0.016521037596499356 4.674017319511107 0.04925734583610433 12.480965905548722 -8.192357158723189 6.873104661689677 0.00039853107342294837 46.415215175559375 0.007835632367600147 -4.33673506075835 -14.790881973837882 -3.820092158645151 -0.025333061567810955 0.04552815096648802 -0.013008405750146512 -0.011399574317339057 -10.761811456006813 -0.028752368571998296 
